<svg width="573" height="154" viewBox="0 0 573 154" fill="none" xmlns="http://www.w3.org/2000/svg">
<path d="M142.006 49.6673C134.414 51.6829 126.447 52.6842 118.649 53.0613C108.154 53.5652 97.8274 52.7004 87.6706 51.0489C81.5857 50.0607 75.4326 49.7702 69.2112 50.1777C64.1174 50.5115 58.1156 51.0294 51.2059 51.7316C42.4334 52.6224 33.9006 52.2843 25.5629 50.2882C23.4241 49.7778 21.5827 48.9033 20.1313 47.2291C16.9023 43.5035 16.832 37.9671 20.2719 34.3228C31.1374 22.8296 43.5598 14.129 57.5391 8.22091C82.517 -2.32843 111.156 -3.11191 136.057 8.12663C142.319 10.9528 147.792 14.3825 152.477 18.4159C157.32 22.5869 164.753 31.0036 161.016 37.9671C159.657 40.4931 157.077 42.8143 154.737 44.274C150.984 46.6125 146.74 48.4103 142.006 49.6673Z" fill="#F59E0B"/>
<path d="M14.7368 64.5743C14.3754 64.4552 13.952 64.4074 13.4666 64.4308C8.71313 63.7357 4.30177 62.1563 0.232525 59.6927C-0.0369048 59.529 -0.0721927 59.326 0.126672 59.0837C3.51699 54.9514 9.45727 53.1053 14.8395 52.5919C21.3859 51.9638 27.9164 52.8183 34.434 54.2021C51.9438 57.9135 70.0052 58.6277 87.8677 57.4608C95.2792 56.9782 102.898 56.297 110.724 55.4169C115.125 54.9217 119.528 54.3073 123.933 53.574C129.965 52.5728 135.561 51.6407 140.721 50.7777C146.05 49.887 151.409 49.3418 156.8 49.142C160.782 48.9932 164.339 49.3907 167.471 50.3345C171.404 51.5206 174.884 54.3042 175.554 58.3408C176.751 65.5212 166.038 69.0668 160.707 70.0617C152.146 71.6591 143.114 71.1362 135.088 67.9891C130.518 66.194 125.45 65.3523 120.645 66.6117C118.56 67.158 116.39 67.7744 114.134 68.461C106.731 70.7153 98.847 71.1776 91.0688 70.6898C84.9446 70.305 79.0877 69.6578 73.4981 68.748C70.5451 68.2655 67.5771 67.6586 64.5941 66.9274C62.0794 66.3109 58.6057 65.2258 54.173 63.6719C51.777 62.8302 48.6882 62.2339 46.0741 62.116C42.3705 61.9459 39.2966 62.0596 36.8525 62.4571C32.8303 63.1118 28.9321 63.6996 25.158 64.2203C21.6725 64.7007 18.1988 64.8187 14.7368 64.5743Z" fill="#577F41"/>
<path d="M133.986 72.2598C137.609 72.7236 145.872 74.5558 144.078 80.0918C142.149 86.0556 132.6 88.4823 127.301 89.289C118.706 90.5933 110.19 90.4202 101.751 88.7697C100.42 88.5106 99.0705 88.2417 97.703 87.963C92.6971 86.9375 86.9259 87.6135 81.8942 88.6815C79.1335 89.2673 76.3514 89.8497 73.5478 90.4289C68.5869 91.4544 62.9539 92.0162 58.0959 90.3211C55.8089 89.522 53.7255 88.3832 51.8457 86.9048C51.1534 86.3583 49.7805 85.1901 47.7271 83.4003C43.5775 79.7837 39.5553 76.5089 35.6607 73.576C34.2246 72.496 32.8121 71.5195 31.4232 70.6463C31.2903 70.5636 31.2817 70.4689 31.3975 70.3622C38.1203 64.173 47.5824 67.2366 54.3728 71.293C56.0789 72.312 57.3478 73.0012 58.1795 73.3604C62.9218 75.4115 67.4873 76.3816 72.5479 76.62C80.1259 76.976 87.5111 76.0615 95.2563 74.853C108.04 72.8575 121.035 70.6006 133.986 72.2598Z" fill="#4F2818"/>
<path d="M123.87 90.4985C128.304 90.4724 132.793 90.7903 137.337 91.4521C140.146 91.8603 143.24 92.6866 145.51 94.5513C147.142 95.8936 147.347 97.9706 146.738 99.9464C144.332 107.748 136.554 109.283 129.65 109.126C123.627 108.989 117.726 107.856 112.009 106.148C109.677 105.451 107.613 104.918 105.816 104.548C103.961 104.167 101.885 103.853 99.5871 103.607C97.5646 103.392 95.4958 103.333 93.3807 103.431C85.8768 103.777 78.3098 105.168 70.9985 106.06C63.1474 107.017 55.309 106.546 47.5462 104.525C39.2784 102.373 30.6128 98.983 24.5769 92.6376C24.5531 92.6123 24.5347 92.582 24.5231 92.5487C24.5115 92.5155 24.5068 92.48 24.5095 92.4448C24.5122 92.4095 24.5222 92.3753 24.5387 92.3443C24.5552 92.3134 24.5779 92.2864 24.6053 92.2653C25.1252 91.8712 25.6703 91.5632 26.2406 91.3411C28.1979 90.5812 30.3371 90.1567 32.6585 90.0674C36.3057 89.9259 40.3012 90.2928 44.6451 91.168C45.689 91.377 46.8054 91.6492 47.9945 91.9844C49.4866 92.4046 50.2422 92.6169 50.2611 92.6213C51.6091 92.9576 52.9539 93.2973 54.283 93.7349C57.7555 94.8801 61.1891 95.6954 64.5838 96.1809C68.7929 96.7818 72.8969 96.4574 76.8955 95.2077C81.754 93.6892 86.0252 92.3567 91.0888 91.7591C93.0208 91.5305 95.0875 91.3716 97.2889 91.2823C100.85 91.1419 104.363 90.9035 107.792 90.799C113.15 90.6313 118.509 90.5312 123.87 90.4985Z" fill="#FCD34D"/>
<path d="M126.579 147.435C109.182 151.17 90.9131 151.79 73.1125 151.266C63.2534 150.977 53.0425 149.614 44.2681 145.837C36.8979 142.661 30.4608 136.989 31.4099 128.589C31.8167 125.011 33.2565 121.914 35.7293 119.298C39.4117 115.402 44.0507 113.381 49.6463 113.236C51.1593 113.197 52.9951 113.34 55.1537 113.667C64.0992 115.018 73.1642 115.788 82.3841 116.145C85.9739 116.284 89.7768 116.194 93.4215 116.141C97.5171 116.079 102.1 115.81 107.171 115.334C114.15 114.676 121.194 114.131 128.303 113.698C133.294 113.392 138.359 113.259 143.498 113.298C146.216 113.317 149.361 113.61 152.931 114.18C155.766 114.633 158.09 115.462 159.904 116.666C163.888 119.314 164.169 123.986 162.206 127.95C159.065 134.289 151.614 138.75 145.158 141.587C139.637 144.012 133.444 145.962 126.579 147.435Z" fill="#F59E0B"/>
<path d="M535.457 49.5652C551.154 52.9354 558.926 69.6363 559.003 85.8357C559.1 105.507 547.79 119.215 532.644 121.373C514.174 124.005 498.952 107.064 498.664 87.9833C498.627 85.6726 498.621 83.3522 498.646 81.0227C498.649 80.7213 498.542 80.6742 498.324 80.8814C498.324 80.8814 467.594 109.308 472.091 109.308C478.395 109.308 475.662 109.308 482.198 109.308C496.24 109.308 493.88 109.308 500.365 109.308C500.564 109.308 500.755 109.38 500.906 109.51L507.426 122.695C505.442 122.648 507.653 122.886 507.426 122.695H448V109.308C448 108.909 459.212 98.189 483.88 70.476C488.278 66.1999 488.365 55.2913 488.365 55.2913C486.553 36.2473 465.391 45.0785 454.727 48.4417L449.121 37.2078C449.121 37.2078 467.061 28.2207 484.834 29.4399C491.728 29.9129 495.092 32.7143 495.092 32.7143V21.4804C511.128 19.2336 510.789 18.1102 510.789 18.1102L511.911 60.799C511.911 60.799 519.76 46.195 535.457 49.5652ZM513.096 98.9658C516.195 98.9042 518.935 110.868 524.244 111.352C536.578 112.475 539.942 96.2682 539.942 85.8357C539.942 75.4032 539.942 61.9224 528.268 62.7971C519.45 64.2473 508.333 84.2382 508.708 97.2261C508.803 100.52 508.31 104.214 510.337 106.044C512.538 108.03 511.906 101.32 513.096 98.9658Z" fill="#F59E0B"/>
<path d="M395.5 49.1057C397.331 49.0352 397.29 49.1057 399.614 49.1057C401.938 49.1057 404.333 49.1057 406.798 49.1057C409.333 49.0352 411.587 49 413.559 49C419.546 49 424.687 49.9163 428.984 51.7489C433.35 53.511 436.942 56.0132 439.76 59.2555C442.577 62.4978 444.655 66.3744 445.993 70.8855C447.331 75.326 448 80.2247 448 85.5815C448 91.0793 447.296 96.0132 445.887 100.383C444.549 104.753 442.436 108.489 439.548 111.59C436.731 114.621 433.139 116.947 428.772 118.568C424.406 120.189 419.229 121 413.242 121C411.2 121 409.333 120.965 407.643 120.894C405.953 120.894 404.227 120.894 402.466 120.894C400.706 120.894 396 120.894 396 120.894C396 120.894 390 118.505 390 113.5V56C390 52.5962 392 49.1057 395.5 49.1057ZM412.82 61.2643C411.622 61.2643 410.707 61.2996 410.073 61.37C406.818 61.37 407.432 62.3742 407.432 65.5V106C407.432 108.422 407.349 108.736 409.862 108.736C410.566 108.736 411.552 108.736 412.82 108.736C415.919 108.736 418.489 108.207 420.532 107.15C422.645 106.092 424.335 104.577 425.603 102.604C426.871 100.63 427.786 98.2335 428.35 95.4141C428.913 92.5242 429.195 89.3172 429.195 85.7929C429.195 69.4405 423.736 61.2643 412.82 61.2643Z" fill="#1F2937"/>
<path d="M352.722 48C363.725 48 371.715 51.2593 376.69 57.778C381.665 64.2967 384.153 73.2598 384.153 84.6675C384.153 90.0358 383.483 95.0686 382.144 99.7658C380.804 104.367 378.747 108.393 375.972 111.845C373.293 115.2 369.897 117.884 365.783 119.897C361.668 121.814 356.884 122.773 351.431 122.773C345.977 122.773 341.241 121.958 337.222 120.328C333.299 118.603 330.046 116.158 327.463 112.995C324.88 109.831 322.966 105.997 321.722 101.491C320.574 96.9858 320 91.9051 320 86.2492C320 80.785 320.67 75.7522 322.009 71.1508C323.349 66.4536 325.358 62.4273 328.037 59.0721C330.812 55.6211 334.256 52.9369 338.37 51.0197C342.485 49.0066 347.269 48 352.722 48ZM351.287 60.0787C348.512 60.0787 346.216 60.7018 344.398 61.948C342.676 63.1942 341.289 64.9677 340.236 67.2684C339.279 69.4732 338.61 72.1095 338.227 75.1771C337.844 78.1488 337.653 81.3602 337.653 84.8113C337.653 88.3582 337.844 91.7134 338.227 94.8768C338.705 98.0403 339.519 100.82 340.667 103.217C341.815 105.518 343.346 107.339 345.259 108.681C347.269 110.023 349.804 110.694 352.866 110.694C355.641 110.694 357.889 110.071 359.611 108.825C361.429 107.579 362.816 105.853 363.773 103.648C364.826 101.348 365.543 98.7113 365.926 95.7396C366.309 92.7679 366.5 89.5565 366.5 86.1054C366.5 82.5585 366.261 79.2033 365.783 76.0398C365.4 72.8764 364.634 70.0963 363.486 67.6998C362.338 65.3032 360.759 63.4339 358.75 62.0918C356.837 60.7497 354.349 60.0787 351.287 60.0787Z" fill="#1F2937"/>
<path d="M282.537 48.5991C293.54 48.5991 301.529 51.8584 306.504 58.3771C311.48 64.8957 313.967 73.8589 313.967 85.2666C313.967 90.6349 313.298 95.6677 311.958 100.365C310.619 104.966 308.561 108.993 305.787 112.444C303.108 115.799 299.711 118.483 295.597 120.496C291.483 122.413 286.699 123.372 281.245 123.372C275.791 123.372 271.055 122.557 267.037 120.927C263.114 119.202 259.861 116.757 257.277 113.594C254.694 110.43 252.781 106.596 251.537 102.09C250.389 97.5849 249.814 92.5042 249.814 86.8483C249.814 81.3841 250.484 76.3513 251.824 71.7499C253.163 67.0527 255.172 63.0264 257.852 59.6712C260.626 56.2202 264.071 53.536 268.185 51.6188C272.299 49.6056 277.083 48.5991 282.537 48.5991ZM281.102 60.6778C278.327 60.6778 276.031 61.3009 274.213 62.5471C272.49 63.7933 271.103 65.5668 270.051 67.8675C269.094 70.0723 268.424 72.7085 268.041 75.7762C267.659 78.7479 267.467 81.9593 267.467 85.4104C267.467 88.9573 267.659 92.3125 268.041 95.4759C268.52 98.6394 269.333 101.419 270.481 103.816C271.629 106.117 273.16 107.938 275.074 109.28C277.083 110.622 279.619 111.293 282.68 111.293C285.455 111.293 287.703 110.67 289.426 109.424C291.244 108.178 292.631 106.452 293.588 104.247C294.64 101.947 295.358 99.3104 295.74 96.3387C296.123 93.367 296.315 90.1555 296.315 86.7045C296.315 83.1576 296.075 79.8024 295.597 76.6389C295.214 73.4754 294.449 70.6954 293.301 68.2989C292.153 65.9023 290.574 64.033 288.565 62.6909C286.651 61.3488 284.163 60.6778 281.102 60.6778Z" fill="#1F2937"/>
<path d="M254.228 33.5007C253.941 33.2131 253.032 32.6858 251.501 31.9189C250.066 31.152 248.678 30.7686 247.339 30.7686C246.478 30.7686 245.425 30.9124 244.181 31.2C242.938 31.3917 241.742 31.9189 240.593 32.7817C239.445 33.5486 238.441 34.699 237.58 36.2328C236.814 37.7666 236.431 39.7797 236.431 42.2721C236.431 43.3266 236.479 44.5249 236.575 45.867C236.766 47.209 237.101 48.6949 237.58 50.3246H255.376L253.367 61.9719H238.441V118.339C238.441 124.091 237.675 128.884 236.144 132.719C234.709 136.649 232.796 139.908 230.404 142.497C228.012 145.181 225.333 147.385 222.367 149.111C219.496 150.932 216.626 152.562 213.755 154L207.154 143.072C210.694 141.25 213.468 139.285 215.478 137.176C217.487 135.163 218.97 133.102 219.927 130.993C220.979 128.98 221.601 127.015 221.792 125.097C221.984 123.18 222.08 121.455 222.08 119.921V61.9719H209.163V50.3246H221.649C221.266 48.8866 220.979 47.4008 220.788 45.867C220.692 44.3332 220.644 42.8952 220.644 41.5531C220.644 37.7186 221.314 34.3155 222.654 31.3438C224.089 28.372 225.955 25.9275 228.251 24.0103C230.643 22.093 233.37 20.6551 236.431 19.6965C239.589 18.642 242.842 18.1147 246.191 18.1147C249.922 18.1147 252.984 18.7378 255.376 19.984C257.768 21.1344 259.729 22.5244 261.26 24.1541L254.228 33.5007Z" fill="#1F2937"/>
</svg>
